<svg xmlns="http://www.w3.org/2000/svg" viewBox="0 0 100 100" width="100%" height="100%">
  <defs>
    <linearGradient id="femaleGrad" x1="0%" y1="0%" x2="100%" y2="100%">
      <stop offset="0%" stop-color="#fae8ff" />
      <stop offset="100%" stop-color="#f5d0fe" />
    </linearGradient>
  </defs>
  <circle cx="50" cy="50" r="50" fill="url(#femaleGrad)" />
  <path d="M25,82 C25,68 35,60 50,60 C65,60 75,68 75,82" fill="none" stroke="#a21caf" stroke-width="6" stroke-linecap="round" />
  <circle cx="50" cy="40" r="13" fill="#a21caf" />
  <path d="M34,40 C34,28 41,22 50,22 C59,22 66,28 66,40 C66,42 63,40 63,40 C63,33 58,30 50,30 C42,30 37,33 37,40 C37,40 34,42 34,40 Z" fill="#701a75" />
</svg>
